<?xml version="1.0" encoding="UTF-8"?>
<svg width="1200" height="800" viewBox="0 0 1200 800" fill="none" xmlns="http://www.w3.org/2000/svg">
  <defs>
    <linearGradient id="g1" x1="0" x2="1" y1="0" y2="1">
      <stop offset="0%" stop-color="#1DA1F2"/>
      <stop offset="100%" stop-color="#7DD3FC"/>
    </linearGradient>
    <linearGradient id="g2" x1="0" x2="1" y1="0" y2="1">
      <stop offset="0%" stop-color="#fff" stop-opacity="0.9"/>
      <stop offset="100%" stop-color="#fff" stop-opacity="0.75"/>
    </linearGradient>
  </defs>

  <rect width="1200" height="800" rx="24" fill="#F8FAFC"/>

  <!-- Left logo block -->
  <g transform="translate(80,120)">
    <rect x="0" y="0" width="520" height="520" rx="28" fill="url(#g1)" />
    <g transform="translate(48,48)">
      <!-- chat bubble -->
      <path d="M240 64c-66 0-120 40-120 88 0 22 8 42 22 57l-36 62 74-28c26 8 54 12 84 12 66 0 120-40 120-88s-54-88-120-88z" fill="#fff" opacity="0.96"/>
      <!-- small bubble -->
      <ellipse cx="118" cy="220" rx="18" ry="12" fill="#fff" opacity="0.9" />
      <!-- dots -->
      <circle cx="210" cy="128" r="10" fill="#1DA1F2"/>
      <circle cx="238" cy="128" r="10" fill="#7DD3FC"/>
      <circle cx="266" cy="128" r="10" fill="#06B6D4"/>
      <!-- wordmark -->
      <text x="24" y="420" font-family="'Segoe UI', Roboto, Helvetica, Arial" font-size="48" fill="#ffffff" font-weight="700">Chit‑Chat</text>
    </g>
  </g>

  <!-- Right illustration: people/icons -->
  <g transform="translate(720,140)">
    <rect x="0" y="0" width="360" height="360" rx="20" fill="#fff" opacity="0.9"/>
    <g transform="translate(36,36)">
      <circle cx="72" cy="72" r="40" fill="#1DA1F2"/>
      <circle cx="180" cy="72" r="36" fill="#7DD3FC"/>
      <rect x="24" y="150" width="240" height="36" rx="18" fill="#E6F6FF"/>
      <rect x="24" y="200" width="160" height="24" rx="12" fill="#F1F9FE"/>
    </g>
  </g>

</svg>
